<?xml version="1.0" encoding="utf-8"?>
<!-- Generator: Adobe Illustrator 28.1.0, SVG Export Plug-In . SVG Version: 6.00 Build 0)  -->
<svg version="1.1" id="Layer_1" xmlns="http://www.w3.org/2000/svg" xmlns:xlink="http://www.w3.org/1999/xlink" x="0px" y="0px"
	 viewBox="0 0 376.1 206.1" style="enable-background:new 0 0 376.1 206.1;" xml:space="preserve">
<style type="text/css">
	.st0{fill:#7F2A28;}
</style>
<g>
	<g>
		<path class="st0" d="M303.6,177.6c2.4,1,4.9,1.7,7.8,2.2c2.8,0.5,5.7,0.8,8.8,0.8c7,0,12.4-1,16.4-3c3.9-2,6.8-4.6,8.4-7.8
			c1.7-3.2,2.5-6.4,2.5-9.8c0-2.7-0.6-5.9-1.7-9.6c-1.1-3.7-3-8.1-5.7-13c-2.6-5-6.2-10.5-10.6-16.6l-8.7,5.7
			c4.9,6.9,8.5,12.5,10.8,16.7c2.4,4.2,3.9,7.6,4.6,10.1c0.7,2.5,1.1,4.6,1.1,6.2c0,2.2-0.6,4.1-1.7,5.7c-1.1,1.6-2.9,2.9-5.4,3.7
			c-2.5,0.8-5.8,1.3-10,1.3c-4,0-7.6-0.5-10.6-1.5c-3-1-5.4-2.1-7.1-3.2l-5,8.7C299.2,175.5,301.3,176.6,303.6,177.6"/>
		<path class="st0" d="M229.8,204.3c1.3-1.3,1.9-2.8,1.9-4.5c0-1.7-0.6-3.3-1.9-4.6c-1.3-1.3-2.8-2-4.5-2c-1.8,0-3.4,0.7-4.6,2
			c-1.3,1.3-1.9,2.8-1.9,4.6c0,1.7,0.6,3.2,1.9,4.5c1.3,1.3,2.8,1.9,4.6,1.9C227,206.1,228.5,205.5,229.8,204.3"/>
		<path class="st0" d="M247.7,204.3c1.3-1.3,1.9-2.8,1.9-4.5c0-1.7-0.6-3.3-1.9-4.6c-1.3-1.3-2.8-2-4.5-2c-1.8,0-3.4,0.7-4.6,2
			c-1.3,1.3-1.9,2.8-1.9,4.6c0,1.7,0.6,3.2,1.9,4.5c1.3,1.3,2.8,1.9,4.6,1.9C244.9,206.1,246.4,205.5,247.7,204.3"/>
		<path class="st0" d="M109.4,150.6c2.8-1.2,4.9-2.3,6.5-3.5c1.5-1.2,2.5-2.3,3.1-3.5c0.5-1.2,0.8-2.4,0.8-3.6
			c0-1.8-0.5-3.4-1.5-4.8c-1-1.3-2.1-2.5-3.4-3.6c-1.3-1-2.4-2-3.4-2.9c-1-0.9-1.5-1.7-1.5-2.5c0-1,0.9-2.2,2.8-3.6
			c1.9-1.3,4.8-3,8.8-4.9l-4-7.4c-4.3,2.1-7.6,4.1-9.9,5.9c-2.3,1.9-4,3.7-4.9,5.3s-1.4,3.3-1.4,4.9c0,1.7,0.5,3.2,1.5,4.4
			c1,1.2,2.1,2.3,3.4,3.2c1.3,0.9,2.4,1.8,3.4,2.6c1,0.8,1.5,1.7,1.5,2.7c0,0.7-0.5,1.4-1.5,2c-1,0.7-2.6,1.3-4.9,2
			c-2.3,0.7-5.2,1.5-8.9,2.5l2.5,8.2C102.9,153,106.6,151.8,109.4,150.6"/>
		<path class="st0" d="M284.9,152.9l-2.6-48.7h-10.6l2.5,49.8c0.2,4.4,0.1,7.7-0.2,10.2c-0.3,2.4-2.6,4.8-4.2,6.3
			c-2,2-21.6,2.3-27,0c-5.2-2.2-6.1-5.2-7.2-6.7c-3.6-4.7-2.6-23.9-2.7-26.1h-9.5c0,0,2.3,32-9.5,32.1c-9.5,0.1-13.5-3.3-14.8-5.8
			c-1.3-2.5-2-5.9-2.2-10.4l-2.5-55.5h-10.5l2.2,55.8c0.2,4.4,0.1,7.7-0.2,10.2c-0.3,2.4-1.5,4.1-3.5,5.1c-2,1-5.4,1.4-10.3,1.4
			c-2.6,0-5-0.5-7.1-1.5c-2.2-1-3.9-2.8-5.2-5.3c-1.3-2.5-2-6-2.2-10.4l-2.7-55.2h-10.5l2.5,56.4c0.2,3.3-0.3,6.1-1.6,8.4
			c-1.2,2.3-3.4,4.2-6.5,5.6c-3.1,1.4-7.4,2.5-13,3.1c-5.6,0.7-12.6,1-21.1,1c-10.4,0-18.4-0.6-24.1-1.9c-5.7-1.3-9.8-3.3-12.1-6
			c-2.3-2.7-3.5-6.4-3.5-10.9c0-1.5,0.2-3.1,0.5-5c0.3-1.8,0.7-3.6,1.1-5.4c0.4-1.8,0.8-3.3,1.2-4.6l-9.8-2.5
			c-0.6,2.2-1.2,4.4-1.8,6.8c-0.6,2.3-1,4.7-1.4,7c-0.3,2.3-0.5,4.5-0.5,6.7c0,4.8,1,8.9,3,12.2c2,3.3,5,6.1,8.9,8.2
			c3.9,2.1,8.8,3.6,14.7,4.6c5.9,1,12.7,1.5,20.4,1.5c7.7,0,14.5-0.3,20.4-0.8c5.9-0.5,11-1.4,15.3-2.5c4.3-1.1,8-2.6,11-4.5
			c2-1.3,3.7-2.7,5.1-4.4c0.5,1.2,1.1,2.3,1.9,3.4c1.3,1.9,3.3,3.5,5.8,4.8c2.5,1.3,5.8,1.9,9.9,1.9c5,0,9.1-0.5,12.4-1.4
			c3.3-0.9,5.9-2.3,7.9-4c1.1-1,2-2.1,2.7-3.3c0.4,0.8,0.9,1.6,1.4,2.4c1.3,1.9,3.2,3.4,5.6,4.6c2.4,1.2,5.4,1.8,9.1,1.8
			c4,0,6.5-0.2,9.4-0.4c6.5-0.5,9-8.4,9.5-9.2c0.1,0.4,0.2,0.7,0.4,1c0.7,1.7,3.3,5.3,7.8,6.7s32.2,1.6,35.7,0c3.8-1.7,6.2-3,8-5.5
			c1.8-2.4,2.9-5.4,3.4-9C284.9,161.6,285.1,157.5,284.9,152.9z"/>
	</g>
	<g>
		<path d="M22.7,96.6c-4.6,0-8.6-1.1-12-3.4c-3.5-2.3-6.1-5.5-8-9.6c-1.9-4.1-2.8-9-2.8-14.5c0-6.6,1.3-12.4,3.8-17.4
			c2.5-5,6-9,10.5-12c4.4-2.9,9.5-4.4,15.2-4.4c2.7,0,5.3,0.3,8,0.8c2.6,0.6,5.2,1.4,7.8,2.7l-0.9,1.9V5.3l1.6,1.9L37.6,6
			c-1.2-0.1-1.8-1.6-1.8-4.5c3.3-0.5,5.8-0.9,7.5-1.1C45,0.1,46.4,0,47.4,0c2.5,0,4.3,0.6,5.4,1.7c1.1,1.2,1.7,3.1,1.7,5.8v78.2
			c0,1.5,0.3,2.6,1,3.4c0.6,0.8,1.5,1.2,2.7,1.2c0.9,0,2-0.2,3.2-0.7c1.2-0.5,2.1-1,2.9-1.6l0.9,3.5c-1.5,1.6-3.3,2.8-5.4,3.8
			c-2.2,0.9-4.2,1.4-6.2,1.4c-2.8,0-4.9-0.9-6.4-2.8c-1.5-1.9-2.3-4.5-2.3-7.8h-0.5c-2.2,3-5.2,5.5-8.9,7.6
			C31.8,95.6,27.5,96.6,22.7,96.6z M28,90c2.5,0,4.8-0.4,6.9-1.2c2.1-0.8,4-1.9,5.8-3.4c1.8-1.5,3.4-3.2,5-5.2l-1.3,2.6V42.7
			l1.3,3.1c-2.2-1.8-4.4-3.2-6.7-4.2c-2.3-1-5.2-1.5-8.7-1.5c-6,0-10.7,2.3-14.1,6.8c-3.4,4.5-5,11-5,19.5c0,7.7,1.4,13.5,4.3,17.5
			C18.3,88,22.5,90,28,90z"/>
		<path d="M87.6,96.6c-4.1,0-7.4-1.2-10.1-3.6c-2.7-2.4-4-5.5-4-9.5c0-4.9,1.6-8.9,4.7-12c3.2-3.1,7.9-5.4,14.2-6.9l17-3.9l-1.7,1.4
			v-9.7c0-4.6-0.8-7.9-2.3-10c-1.6-2.1-4-3.2-7.3-3.2c-4,0-7,1.2-9.2,3.6c-2.2,2.4-3.2,5.8-3.2,10.3c-0.4,0.4-1,0.8-1.8,1
			c-0.8,0.3-1.6,0.4-2.3,0.4c-1.5,0-2.6-0.4-3.5-1.3c-0.9-0.9-1.3-2-1.3-3.5c0-2.8,1-5.4,3-7.5c2-2.2,4.7-3.9,8.2-5.1
			c3.5-1.3,7.4-1.9,11.7-1.9c6.4,0,11.1,1.6,14,4.8c3,3.2,4.5,8.3,4.5,15.3v30.4c0,1.5,0.3,2.6,0.9,3.4c0.6,0.8,1.5,1.2,2.6,1.2
			c0.9,0,2-0.3,3.2-0.8c1.2-0.5,2.1-1.1,2.9-1.7l0.9,3.5c-1.4,1.6-3.2,2.9-5.3,3.9c-2.2,0.9-4.2,1.4-6.2,1.4c-2.8,0-4.9-0.9-6.5-2.7
			c-1.6-1.8-2.3-4.3-2.3-7.6h-0.5c-2.4,3.3-5.4,5.8-8.9,7.6C95.3,95.7,91.5,96.6,87.6,96.6z M92.5,90.5c3.1,0,6.1-0.8,8.9-2.3
			c2.8-1.6,5.2-3.7,7.1-6.5l-0.8,2.2V64.5l1.7,0.3l-14.8,3.5c-3.7,0.9-6.5,2.4-8.5,4.5c-1.9,2.1-2.9,4.8-2.9,8c0,3,0.8,5.4,2.5,7.2
			C87.4,89.6,89.6,90.5,92.5,90.5z"/>
		<path d="M144.8,93.8V5.4l1.6,1.9l-8-1.4c-1.3-0.3-1.9-1.8-1.9-4.5c2.8-0.4,5.3-0.8,7.3-1c2-0.3,3.9-0.4,5.7-0.4c4,0,6,2.5,6,7.5
			v86.3"/>
		<path d="M183.8,93.8l0.3-52.2l1.6,1.9l-8-1.4c-1.3-0.2-1.9-1.7-1.9-4.5c2.9-0.4,5.4-0.8,7.3-1c1.9-0.2,3.9-0.3,5.8-0.3
			c4,0,6,2.5,6,7.4v50.1 M188.8,23.4c-2.1,0-3.7-0.6-4.8-1.7c-1.1-1.2-1.7-2.7-1.7-4.6c0-1.9,0.7-3.5,2-4.7c1.3-1.2,2.8-1.8,4.5-1.8
			c2.1,0,3.7,0.6,4.9,1.7c1.2,1.2,1.7,2.7,1.7,4.7c0,1.8-0.7,3.3-2,4.5C192.1,22.8,190.5,23.4,188.8,23.4z"/>
		<path d="M223.5,134.1l-1-128.7l1.6,1.9L216,6c-1.3-0.3-1.9-1.8-1.9-4.5c2.8-0.4,5.3-0.8,7.3-1c2-0.3,3.9-0.4,5.7-0.4
			c4,0,6,2.2,6,7.2v127"/>
		<path d="M266.4,96.6c-4.1,0-7.4-1.2-10.1-3.6c-2.7-2.4-4-5.5-4-9.5c0-4.9,1.6-8.9,4.7-12c3.2-3.1,7.9-5.4,14.2-6.9l17-3.9
			l-1.7,1.4v-9.7c0-4.6-0.8-7.9-2.3-10c-1.6-2.1-4-3.2-7.3-3.2c-4,0-7,1.2-9.2,3.6c-2.2,2.4-3.2,5.8-3.2,10.3c-0.4,0.4-1,0.8-1.8,1
			c-0.8,0.3-1.6,0.4-2.3,0.4c-1.5,0-2.6-0.4-3.5-1.3c-0.9-0.9-1.3-2-1.3-3.5c0-2.8,1-5.4,3-7.5c2-2.2,4.7-3.9,8.2-5.1
			c3.5-1.3,7.4-1.9,11.7-1.9c6.4,0,11.1,1.6,14,4.8c3,3.2,4.5,8.3,4.5,15.3v30.4c0,1.5,0.3,2.6,0.9,3.4c0.6,0.8,1.5,1.2,2.6,1.2
			c0.9,0,2-0.3,3.2-0.8c1.2-0.5,2.1-1.1,2.9-1.7l0.9,3.5c-1.4,1.6-3.2,2.9-5.3,3.9c-2.2,0.9-4.2,1.4-6.2,1.4c-2.8,0-4.9-0.9-6.5-2.7
			c-1.6-1.8-2.3-4.3-2.3-7.6h-0.5c-2.4,3.3-5.4,5.8-8.9,7.6C274.1,95.7,270.3,96.6,266.4,96.6z M271.3,90.5c3.1,0,6.1-0.8,8.9-2.3
			s5.2-3.7,7.1-6.5l-0.8,2.2V64.5l1.7,0.3l-14.8,3.5c-3.7,0.9-6.5,2.4-8.5,4.5c-1.9,2.1-2.9,4.8-2.9,8c0,3,0.8,5.4,2.5,7.2
			C266.2,89.6,268.4,90.5,271.3,90.5z"/>
		<path d="M315.2,95c0-1.5,0.2-2.5,0.5-3.2c0.3-0.7,0.9-1.2,1.6-1.4l7.8-2.5l-1.4,1.8V5.4l1.6,1.9l-8-1.4c-1.3-0.3-1.9-1.8-1.9-4.5
			c2.8-0.4,5.3-0.8,7.3-1c2-0.3,3.9-0.4,5.7-0.4c4,0,6,2.5,6,7.5V90l-1.7-1.8l8.9,2.1c0,1.3-0.2,2.3-0.5,2.9
			c-0.3,0.6-0.9,1.3-1.9,1.9H315.2z M369,96.6c-2.3,0-5.1-1-8.4-3c-3.2-2-7-5.5-11.2-10.4c-4.2-4.9-9.1-11.7-14.6-20.3l22-19.4
			l-0.6,1.4l-7.4-2.2c0-1.9,0.6-3.5,1.7-4.9h22.5c0,1.7-0.1,2.9-0.4,3.6c-0.3,0.6-0.8,1.1-1.7,1.4l-10.4,3.5l7-4.1l-24.5,21.8
			l1.2-3.4c3,4.5,6.3,8.7,10,12.8s7.3,7.5,11.1,10.6c3.8,3,7.4,5.4,10.9,7.1c0,1.7-0.7,3.1-2.1,4.2C372.8,96,371.1,96.6,369,96.6z"
			/>
	</g>
</g>
</svg>
